<svg xmlns="http://www.w3.org/2000/svg" width="640" height="640" viewBox="0 0 640 640" role="img" aria-labelledby="title desc">
  <title id="title">Phone placeholder</title>
  <desc id="desc">A neutral smartphone placeholder image.</desc>
  <defs>
    <linearGradient id="bg" x1="0" y1="0" x2="1" y2="1">
      <stop offset="0" stop-color="#eef6ff"/>
      <stop offset="1" stop-color="#f8fbff"/>
    </linearGradient>
    <linearGradient id="screen" x1="0" y1="0" x2="0" y2="1">
      <stop offset="0" stop-color="#ffffff"/>
      <stop offset="1" stop-color="#e7f1fb"/>
    </linearGradient>
  </defs>
  <rect width="640" height="640" fill="url(#bg)"/>
  <rect x="202" y="72" width="236" height="496" rx="38" fill="#17324d"/>
  <rect x="218" y="98" width="204" height="430" rx="24" fill="url(#screen)"/>
  <rect x="282" y="86" width="76" height="10" rx="5" fill="#dce8f5"/>
  <circle cx="320" cy="548" r="10" fill="#dce8f5"/>
  <path d="M270 292h100c12 0 22 10 22 22v48c0 12-10 22-22 22H270c-12 0-22-10-22-22v-48c0-12 10-22 22-22Z" fill="#cfe3f8"/>
  <path d="M286 334h68m-68 26h44" stroke="#6c8faf" stroke-width="14" stroke-linecap="round"/>
  <circle cx="370" cy="334" r="15" fill="#7fb4e5"/>
</svg>
